<mxfile host="app.diagrams.net" modified="2021-11-04T06:33:28.622Z" agent="5.0 (Windows NT 10.0; Win64; x64) AppleWebKit/537.36 (KHTML, like Gecko) Chrome/93.0.4577.63 Safari/537.36" etag="mtw2w32t2-R-xKV9LDl9" version="15.3.4" type="github">
  <diagram id="2ezywAbjpjOhrYMZy6zH" name="Page-1">
    <mxGraphModel dx="2249" dy="1870" grid="1" gridSize="10" guides="1" tooltips="1" connect="1" arrows="1" fold="1" page="1" pageScale="1" pageWidth="827" pageHeight="1169" math="0" shadow="0">
      <root>
        <mxCell id="0" />
        <mxCell id="1" parent="0" />
        <mxCell id="8IKvceuXdeiTA4ol1c4--1" value="" style="rounded=0;whiteSpace=wrap;html=1;hachureGap=4;pointerEvents=0;" parent="1" vertex="1">
          <mxGeometry x="80" y="160" width="120" height="120" as="geometry" />
        </mxCell>
        <mxCell id="8IKvceuXdeiTA4ol1c4--3" value="/dev/sda" style="rounded=0;whiteSpace=wrap;html=1;hachureGap=4;pointerEvents=0;" parent="1" vertex="1">
          <mxGeometry x="100" y="170" width="80" height="40" as="geometry" />
        </mxCell>
        <mxCell id="8IKvceuXdeiTA4ol1c4--4" value="/dev/sdb" style="rounded=0;whiteSpace=wrap;html=1;hachureGap=4;pointerEvents=0;" parent="1" vertex="1">
          <mxGeometry x="100" y="230" width="80" height="40" as="geometry" />
        </mxCell>
        <mxCell id="8IKvceuXdeiTA4ol1c4--5" value="" style="rounded=0;whiteSpace=wrap;html=1;hachureGap=4;pointerEvents=0;" parent="1" vertex="1">
          <mxGeometry x="280" y="160" width="120" height="120" as="geometry" />
        </mxCell>
        <mxCell id="8IKvceuXdeiTA4ol1c4--6" value="/dev/sda" style="rounded=0;whiteSpace=wrap;html=1;hachureGap=4;pointerEvents=0;" parent="1" vertex="1">
          <mxGeometry x="300" y="170" width="80" height="40" as="geometry" />
        </mxCell>
        <mxCell id="8IKvceuXdeiTA4ol1c4--7" value="/dev/sdb" style="rounded=0;whiteSpace=wrap;html=1;hachureGap=4;pointerEvents=0;" parent="1" vertex="1">
          <mxGeometry x="300" y="230" width="80" height="40" as="geometry" />
        </mxCell>
        <mxCell id="8IKvceuXdeiTA4ol1c4--14" value="" style="rounded=0;whiteSpace=wrap;html=1;hachureGap=4;pointerEvents=0;" parent="1" vertex="1">
          <mxGeometry x="480" y="160" width="120" height="120" as="geometry" />
        </mxCell>
        <mxCell id="8IKvceuXdeiTA4ol1c4--15" value="/dev/sda" style="rounded=0;whiteSpace=wrap;html=1;hachureGap=4;pointerEvents=0;" parent="1" vertex="1">
          <mxGeometry x="500" y="170" width="80" height="40" as="geometry" />
        </mxCell>
        <mxCell id="8IKvceuXdeiTA4ol1c4--16" value="/dev/sdb" style="rounded=0;whiteSpace=wrap;html=1;hachureGap=4;pointerEvents=0;" parent="1" vertex="1">
          <mxGeometry x="500" y="230" width="80" height="40" as="geometry" />
        </mxCell>
        <mxCell id="8IKvceuXdeiTA4ol1c4--17" value="" style="rounded=0;whiteSpace=wrap;html=1;hachureGap=4;pointerEvents=0;" parent="1" vertex="1">
          <mxGeometry x="680" y="160" width="120" height="120" as="geometry" />
        </mxCell>
        <mxCell id="8IKvceuXdeiTA4ol1c4--18" value="/dev/sda" style="rounded=0;whiteSpace=wrap;html=1;hachureGap=4;pointerEvents=0;" parent="1" vertex="1">
          <mxGeometry x="700" y="170" width="80" height="40" as="geometry" />
        </mxCell>
        <mxCell id="8IKvceuXdeiTA4ol1c4--19" value="/dev/sdb" style="rounded=0;whiteSpace=wrap;html=1;hachureGap=4;pointerEvents=0;" parent="1" vertex="1">
          <mxGeometry x="700" y="230" width="80" height="40" as="geometry" />
        </mxCell>
        <mxCell id="8IKvceuXdeiTA4ol1c4--20" value="" style="rounded=0;whiteSpace=wrap;html=1;hachureGap=4;pointerEvents=0;" parent="1" vertex="1">
          <mxGeometry x="860" y="160" width="120" height="120" as="geometry" />
        </mxCell>
        <mxCell id="8IKvceuXdeiTA4ol1c4--21" value="/dev/sda" style="rounded=0;whiteSpace=wrap;html=1;hachureGap=4;pointerEvents=0;" parent="1" vertex="1">
          <mxGeometry x="880" y="170" width="80" height="40" as="geometry" />
        </mxCell>
        <mxCell id="8IKvceuXdeiTA4ol1c4--22" value="/dev/sdb" style="rounded=0;whiteSpace=wrap;html=1;hachureGap=4;pointerEvents=0;" parent="1" vertex="1">
          <mxGeometry x="880" y="230" width="80" height="40" as="geometry" />
        </mxCell>
        <mxCell id="8IKvceuXdeiTA4ol1c4--23" value="k8s-node1" style="text;html=1;strokeColor=none;fillColor=none;align=center;verticalAlign=middle;whiteSpace=wrap;rounded=0;hachureGap=4;pointerEvents=0;" parent="1" vertex="1">
          <mxGeometry x="100" y="130" width="90" height="20" as="geometry" />
        </mxCell>
        <mxCell id="8IKvceuXdeiTA4ol1c4--27" value="k8s-node2" style="text;html=1;strokeColor=none;fillColor=none;align=center;verticalAlign=middle;whiteSpace=wrap;rounded=0;hachureGap=4;pointerEvents=0;" parent="1" vertex="1">
          <mxGeometry x="295" y="130" width="90" height="20" as="geometry" />
        </mxCell>
        <mxCell id="8IKvceuXdeiTA4ol1c4--28" value="k8s-node3" style="text;html=1;strokeColor=none;fillColor=none;align=center;verticalAlign=middle;whiteSpace=wrap;rounded=0;hachureGap=4;pointerEvents=0;" parent="1" vertex="1">
          <mxGeometry x="490" y="130" width="90" height="20" as="geometry" />
        </mxCell>
        <mxCell id="8IKvceuXdeiTA4ol1c4--29" value="k8s-node4" style="text;html=1;strokeColor=none;fillColor=none;align=center;verticalAlign=middle;whiteSpace=wrap;rounded=0;hachureGap=4;pointerEvents=0;" parent="1" vertex="1">
          <mxGeometry x="690" y="130" width="90" height="20" as="geometry" />
        </mxCell>
        <mxCell id="8IKvceuXdeiTA4ol1c4--30" value="k8s-node5" style="text;html=1;strokeColor=none;fillColor=none;align=center;verticalAlign=middle;whiteSpace=wrap;rounded=0;hachureGap=4;pointerEvents=0;" parent="1" vertex="1">
          <mxGeometry x="875" y="130" width="90" height="20" as="geometry" />
        </mxCell>
        <mxCell id="8IKvceuXdeiTA4ol1c4--32" value="/dev/sda:系统盘" style="text;html=1;strokeColor=none;fillColor=none;align=center;verticalAlign=middle;whiteSpace=wrap;rounded=0;hachureGap=4;pointerEvents=0;" parent="1" vertex="1">
          <mxGeometry x="-80" y="180" width="120" height="20" as="geometry" />
        </mxCell>
        <mxCell id="8IKvceuXdeiTA4ol1c4--33" value="/dev/sdb:ceph数据盘" style="text;html=1;strokeColor=none;fillColor=none;align=center;verticalAlign=middle;whiteSpace=wrap;rounded=0;hachureGap=4;pointerEvents=0;" parent="1" vertex="1">
          <mxGeometry x="-100" y="240" width="130" height="20" as="geometry" />
        </mxCell>
        <mxCell id="8IKvceuXdeiTA4ol1c4--36" value="" style="rounded=0;whiteSpace=wrap;html=1;hachureGap=4;pointerEvents=0;" parent="1" vertex="1">
          <mxGeometry x="280" y="-80" width="120" height="120" as="geometry" />
        </mxCell>
        <mxCell id="8IKvceuXdeiTA4ol1c4--37" value="/dev/sda" style="rounded=0;whiteSpace=wrap;html=1;hachureGap=4;pointerEvents=0;" parent="1" vertex="1">
          <mxGeometry x="300" y="-70" width="80" height="40" as="geometry" />
        </mxCell>
        <mxCell id="8IKvceuXdeiTA4ol1c4--38" value="/dev/sdb" style="rounded=0;whiteSpace=wrap;html=1;hachureGap=4;pointerEvents=0;" parent="1" vertex="1">
          <mxGeometry x="300" y="-10" width="80" height="40" as="geometry" />
        </mxCell>
        <mxCell id="8IKvceuXdeiTA4ol1c4--39" value="k8s-master1" style="text;html=1;strokeColor=none;fillColor=none;align=center;verticalAlign=middle;whiteSpace=wrap;rounded=0;hachureGap=4;pointerEvents=0;" parent="1" vertex="1">
          <mxGeometry x="300" y="-110" width="90" height="20" as="geometry" />
        </mxCell>
        <mxCell id="8IKvceuXdeiTA4ol1c4--40" value="" style="rounded=0;whiteSpace=wrap;html=1;hachureGap=4;pointerEvents=0;" parent="1" vertex="1">
          <mxGeometry x="680" y="-80" width="120" height="120" as="geometry" />
        </mxCell>
        <mxCell id="8IKvceuXdeiTA4ol1c4--41" value="/dev/sda" style="rounded=0;whiteSpace=wrap;html=1;hachureGap=4;pointerEvents=0;" parent="1" vertex="1">
          <mxGeometry x="700" y="-70" width="80" height="40" as="geometry" />
        </mxCell>
        <mxCell id="8IKvceuXdeiTA4ol1c4--42" value="/dev/sdb" style="rounded=0;whiteSpace=wrap;html=1;hachureGap=4;pointerEvents=0;" parent="1" vertex="1">
          <mxGeometry x="700" y="-10" width="80" height="40" as="geometry" />
        </mxCell>
        <mxCell id="8IKvceuXdeiTA4ol1c4--43" value="k8s-master2" style="text;html=1;strokeColor=none;fillColor=none;align=center;verticalAlign=middle;whiteSpace=wrap;rounded=0;hachureGap=4;pointerEvents=0;" parent="1" vertex="1">
          <mxGeometry x="700" y="-110" width="90" height="20" as="geometry" />
        </mxCell>
        <mxCell id="8IKvceuXdeiTA4ol1c4--44" value="/dev/sda:系统盘" style="text;html=1;strokeColor=none;fillColor=none;align=center;verticalAlign=middle;whiteSpace=wrap;rounded=0;hachureGap=4;pointerEvents=0;" parent="1" vertex="1">
          <mxGeometry x="30" y="-60" width="180" height="20" as="geometry" />
        </mxCell>
        <mxCell id="8IKvceuXdeiTA4ol1c4--45" value="/dev/sdb：数据盘" style="text;html=1;strokeColor=none;fillColor=none;align=center;verticalAlign=middle;whiteSpace=wrap;rounded=0;hachureGap=4;pointerEvents=0;" parent="1" vertex="1">
          <mxGeometry x="50" width="160" height="20" as="geometry" />
        </mxCell>
        <mxCell id="8IKvceuXdeiTA4ol1c4--46" value="nginx+keepalived" style="rounded=0;whiteSpace=wrap;html=1;hachureGap=4;pointerEvents=0;" parent="1" vertex="1">
          <mxGeometry x="260" y="-240" width="160" height="40" as="geometry" />
        </mxCell>
        <mxCell id="8IKvceuXdeiTA4ol1c4--47" value="nginx+keepalived" style="rounded=0;whiteSpace=wrap;html=1;hachureGap=4;pointerEvents=0;" parent="1" vertex="1">
          <mxGeometry x="655" y="-240" width="160" height="40" as="geometry" />
        </mxCell>
        <mxCell id="8IKvceuXdeiTA4ol1c4--48" value="etcd-0" style="rounded=0;whiteSpace=wrap;html=1;hachureGap=4;pointerEvents=0;" parent="1" vertex="1">
          <mxGeometry x="160" y="-400" width="120" height="40" as="geometry" />
        </mxCell>
        <mxCell id="8IKvceuXdeiTA4ol1c4--49" value="etcd-1" style="rounded=0;whiteSpace=wrap;html=1;hachureGap=4;pointerEvents=0;" parent="1" vertex="1">
          <mxGeometry x="440" y="-400" width="120" height="40" as="geometry" />
        </mxCell>
        <mxCell id="8IKvceuXdeiTA4ol1c4--50" value="etcd-2" style="rounded=0;whiteSpace=wrap;html=1;hachureGap=4;pointerEvents=0;" parent="1" vertex="1">
          <mxGeometry x="680" y="-400" width="120" height="40" as="geometry" />
        </mxCell>
        <mxCell id="8IKvceuXdeiTA4ol1c4--51" value="" style="endArrow=none;dashed=1;html=1;startSize=14;endSize=14;sourcePerimeterSpacing=8;targetPerimeterSpacing=8;" parent="1" edge="1">
          <mxGeometry width="50" height="50" relative="1" as="geometry">
            <mxPoint x="-120" y="-280" as="sourcePoint" />
            <mxPoint x="1000" y="-280" as="targetPoint" />
          </mxGeometry>
        </mxCell>
        <mxCell id="8IKvceuXdeiTA4ol1c4--52" value="" style="endArrow=none;dashed=1;html=1;startSize=14;endSize=14;sourcePerimeterSpacing=8;targetPerimeterSpacing=8;" parent="1" edge="1">
          <mxGeometry width="50" height="50" relative="1" as="geometry">
            <mxPoint x="-120" y="-160" as="sourcePoint" />
            <mxPoint x="1000" y="-160" as="targetPoint" />
          </mxGeometry>
        </mxCell>
        <mxCell id="8IKvceuXdeiTA4ol1c4--53" value="" style="endArrow=none;dashed=1;html=1;startSize=14;endSize=14;sourcePerimeterSpacing=8;targetPerimeterSpacing=8;" parent="1" edge="1">
          <mxGeometry width="50" height="50" relative="1" as="geometry">
            <mxPoint x="-120" y="80" as="sourcePoint" />
            <mxPoint x="1000" y="80" as="targetPoint" />
          </mxGeometry>
        </mxCell>
        <mxCell id="8IKvceuXdeiTA4ol1c4--54" value="k8s后端储存" style="text;html=1;strokeColor=none;fillColor=none;align=center;verticalAlign=middle;whiteSpace=wrap;rounded=0;hachureGap=4;pointerEvents=0;" parent="1" vertex="1">
          <mxGeometry x="-130" y="-380" width="130" height="20" as="geometry" />
        </mxCell>
        <mxCell id="8IKvceuXdeiTA4ol1c4--55" value="负载均衡" style="text;html=1;strokeColor=none;fillColor=none;align=center;verticalAlign=middle;whiteSpace=wrap;rounded=0;hachureGap=4;pointerEvents=0;" parent="1" vertex="1">
          <mxGeometry x="-100" y="-220" width="100" height="20" as="geometry" />
        </mxCell>
        <mxCell id="8IKvceuXdeiTA4ol1c4--56" value="k8s控制平面" style="text;html=1;strokeColor=none;fillColor=none;align=center;verticalAlign=middle;whiteSpace=wrap;rounded=0;hachureGap=4;pointerEvents=0;" parent="1" vertex="1">
          <mxGeometry x="-110" y="-40" width="110" height="20" as="geometry" />
        </mxCell>
        <mxCell id="8IKvceuXdeiTA4ol1c4--57" value="k8s工作平面" style="text;html=1;strokeColor=none;fillColor=none;align=center;verticalAlign=middle;whiteSpace=wrap;rounded=0;hachureGap=4;pointerEvents=0;" parent="1" vertex="1">
          <mxGeometry x="-230" y="200" width="120" height="20" as="geometry" />
        </mxCell>
      </root>
    </mxGraphModel>
  </diagram>
</mxfile>
